<svg width="153" height="106" viewBox="0 0 153 106" fill="none" xmlns="http://www.w3.org/2000/svg">
<path fill-rule="evenodd" clip-rule="evenodd" d="M55.6729 19.4957V0.253906H60.0716C62.8147 0.253906 65.0642 2.50871 65.0642 5.25828V17.9174H59.47C57.7411 18.0784 56.4865 18.8141 55.6729 19.4957Z" fill="white"/>
<path fill-rule="evenodd" clip-rule="evenodd" d="M86.062 0.140381C94.2849 0.307881 100.906 7.04523 100.906 15.3339C100.906 23.7308 94.1114 30.5428 85.742 30.5428C78.874 30.5428 71.9519 30.3882 65.0646 30.3882V41.3208C65.0646 46.3046 60.9924 50.3864 56.0204 50.3864H44.3925C39.414 50.3864 35.3418 46.3046 35.3418 41.3208V20.413L41.5363 20.4735C43.8256 20.7068 45.1676 22.9281 45.2408 24.0658V35.841C45.2408 38.7117 47.5893 41.067 50.4597 41.067H55.6733V25.2898C55.6733 22.4797 57.9627 20.1849 60.7585 20.1849H86.062C89.0455 20.1849 91.4621 17.8709 91.4621 15.0195C91.4621 12.163 89.0455 9.84891 86.062 9.84891" fill="white"/>
<path fill-rule="evenodd" clip-rule="evenodd" d="M40.3408 0.253906H45.2408V19.4159C42.3499 16.7603 37.171 17.3749 35.3418 17.6971V5.25828C35.3418 2.50871 37.5913 0.253906 40.3408 0.253906Z" fill="white"/>
<path fill-rule="evenodd" clip-rule="evenodd" d="M146.154 0.253906H152.001V45.4427C152.001 48.1652 149.778 50.3865 147.068 50.3865H142.136V4.28163C142.136 2.06806 143.944 0.253906 146.154 0.253906Z" fill="white"/>
<path fill-rule="evenodd" clip-rule="evenodd" d="M0 0.253906H20.6709C25.6506 0.253906 29.7216 4.33574 29.7216 9.3195V41.3209C29.7216 46.3047 25.6506 50.3865 20.6709 50.3865H0V0.253906ZM9.17792 9.70088H14.7181C17.7671 9.70088 20.2647 12.2044 20.2647 15.2619V35.5074C20.2647 38.5649 17.7671 41.0658 14.7181 41.0658H9.17792" fill="white"/>
<path fill-rule="evenodd" clip-rule="evenodd" d="M98.8437 27.1169C99.9916 29.3305 100.646 31.8469 100.646 34.5166C100.646 41.8092 95.7934 47.9642 89.158 49.9252C84.794 51.2098 80.0881 50.3865 75.5891 50.3865C72.9463 50.3865 70.7842 48.2193 70.7842 45.569L70.8973 32.7372L80.7758 32.629V35.7483H80.7822V35.7548C80.7822 38.7182 83.1782 41.1199 86.136 41.1199C89.0925 41.1199 91.4949 38.7182 91.4949 35.7548C91.4949 34.2692 90.8946 32.9305 89.9267 31.9615C94.5645 31.9744 97.629 28.7095 98.8437 27.1169Z" fill="white"/>
<path fill-rule="evenodd" clip-rule="evenodd" d="M83.4458 32.6226H86.0822C87.5373 32.6226 88.725 33.8144 88.725 35.2729C88.725 36.725 87.5373 37.9155 86.0822 37.9155C84.6335 37.9155 83.4458 36.725 83.4458 35.2729" fill="white"/>
<path fill-rule="evenodd" clip-rule="evenodd" d="M106.726 32.8777H116.245V45.6167C116.245 48.2387 114.102 50.3865 111.485 50.3865H106.726" fill="white"/>
<path fill-rule="evenodd" clip-rule="evenodd" d="M136.395 28.1541C134.2 31.3249 130.922 32.7294 126.876 32.8763V45.6152C126.876 48.2385 129.019 50.3864 131.636 50.3864H136.395" fill="white"/>
<path fill-rule="evenodd" clip-rule="evenodd" d="M116.245 17.9379C110.564 17.8632 109.69 17.121 106.726 19.6966V9.22662C106.726 4.70284 111.386 0.427734 115.317 0.427734H118.348C117.039 1.15056 116.297 2.3746 116.245 4.18746" fill="white"/>
<path fill-rule="evenodd" clip-rule="evenodd" d="M106.694 30.168H126.69C132.216 30.168 136.742 25.6377 136.742 20.0909V10.1427C136.742 4.89743 132.69 0.548883 127.565 0.1005L123.512 0C120.93 0 118.821 2.1208 118.821 4.7106V9.36065L118.774 9.41992H121.538C124.582 9.41992 127.064 11.9157 127.064 14.9667C127.064 18.0114 124.582 20.5058 121.538 20.5058C118.16 20.5058 114.829 20.5664 111.485 20.5664C108.85 20.5664 106.694 22.7271 106.694 25.371" fill="white"/>
<path fill-rule="evenodd" clip-rule="evenodd" d="M43.7119 52.7083H46.3547C47.8034 52.7083 48.9911 53.8988 48.9911 55.3509C48.9911 56.8094 47.8034 57.9999 46.3547 57.9999C44.8996 57.9999 43.7119 56.8094 43.7119 55.3509" fill="white"/>
<path fill-rule="evenodd" clip-rule="evenodd" d="M51.5879 52.7083H54.2243C55.6794 52.7083 56.8607 53.8988 56.8607 55.3509C56.8607 56.8094 55.6794 57.9999 54.2243 57.9999C52.7756 57.9999 51.5879 56.8094 51.5879 55.3509" fill="white"/>
<path fill-rule="evenodd" clip-rule="evenodd" d="M71.0044 0.161133H83.446V10.7922C81.7775 11.3063 80.5487 12.8731 80.5487 14.7065V17.67H71.0044" fill="white"/>
<path d="M8.69762 105H4.39648V93.3637H8.69194C9.87754 93.3637 10.8984 93.5966 11.7544 94.0625C12.6143 94.5247 13.2772 95.1913 13.7431 96.0625C14.209 96.93 14.4419 97.9678 14.4419 99.1762C14.4419 100.388 14.209 101.43 13.7431 102.301C13.281 103.172 12.62 103.841 11.7601 104.307C10.9003 104.769 9.87944 105 8.69762 105ZM7.20898 102.602H8.58967C9.24118 102.602 9.79232 102.492 10.2431 102.273C10.6976 102.049 11.0404 101.688 11.2715 101.188C11.5063 100.684 11.6238 100.013 11.6238 99.1762C11.6238 98.3391 11.5063 97.6724 11.2715 97.1762C11.0366 96.6762 10.69 96.3163 10.2317 96.0966C9.77717 95.8732 9.21656 95.7614 8.54989 95.7614H7.20898V102.602Z" fill="white"/>
<path d="M26.3238 93.3637H29.1306V100.869C29.1306 101.737 28.9241 102.492 28.5113 103.136C28.0984 103.777 27.5226 104.273 26.784 104.625C26.0453 104.974 25.1874 105.148 24.2101 105.148C23.2215 105.148 22.3578 104.974 21.6192 104.625C20.8806 104.273 20.3067 103.777 19.8976 103.136C19.4885 102.492 19.284 101.737 19.284 100.869V93.3637H22.0965V100.625C22.0965 101.027 22.1836 101.385 22.3578 101.699C22.5359 102.013 22.784 102.26 23.1022 102.438C23.4203 102.616 23.7897 102.705 24.2101 102.705C24.6306 102.705 24.998 102.616 25.3124 102.438C25.6306 102.26 25.8787 102.013 26.0567 101.699C26.2347 101.385 26.3238 101.027 26.3238 100.625V93.3637Z" fill="white"/>
<path d="M34.0934 105V93.3637H38.9456C39.8168 93.3637 40.546 93.4868 41.1331 93.733C41.724 93.9792 42.1672 94.3239 42.4627 94.7671C42.7619 95.2103 42.9115 95.7235 42.9115 96.3069C42.9115 96.75 42.8187 97.1459 42.6331 97.4944C42.4475 97.8391 42.1918 98.125 41.8661 98.3523C41.5403 98.5796 41.1634 98.7387 40.7354 98.8296V98.9432C41.2051 98.966 41.6388 99.0928 42.0365 99.3239C42.4381 99.555 42.76 99.8769 43.0024 100.29C43.2449 100.699 43.3661 101.184 43.3661 101.744C43.3661 102.369 43.207 102.928 42.8888 103.42C42.5706 103.909 42.1104 104.295 41.5081 104.58C40.9059 104.86 40.1748 105 39.3149 105H34.0934ZM36.9059 102.733H38.6445C39.2543 102.733 39.7032 102.617 39.9911 102.386C40.2828 102.155 40.4286 101.833 40.4286 101.42C40.4286 101.121 40.3585 100.864 40.2184 100.648C40.0782 100.428 39.8793 100.26 39.6218 100.142C39.3642 100.021 39.0555 99.9603 38.6956 99.9603H36.9059V102.733ZM36.9059 98.1478H38.4627C38.7695 98.1478 39.0422 98.0966 39.2809 97.9944C39.5195 97.8921 39.7051 97.7444 39.8377 97.5512C39.974 97.358 40.0422 97.125 40.0422 96.8523C40.0422 96.4622 39.904 96.1553 39.6274 95.9319C39.3509 95.7084 38.9778 95.5966 38.5081 95.5966H36.9059V98.1478Z" fill="white"/>
<path d="M50.4354 105H47.4127L51.3388 93.3637H55.0831L59.0093 105H55.9865L53.2536 96.2955H53.1627L50.4354 105ZM50.032 100.42H56.3502V102.557H50.032V100.42Z" fill="white"/>
<path d="M66.2746 93.3637V105H63.4621V93.3637H66.2746Z" fill="white"/>
<path d="M77.8777 93.3637H81.3607L84.3152 100.568H84.4516L87.4061 93.3637H90.8891V105H88.1505V97.8523H88.0539L85.2584 104.926H83.5084L80.713 97.8125H80.6164V105H77.8777V93.3637Z" fill="white"/>
<path d="M95.8434 105V93.3637H103.957V95.6478H98.6559V98.0341H103.542V100.324H98.6559V102.716H103.957V105H95.8434Z" fill="white"/>
<path d="M108.538 95.6478V93.3637H118.373V95.6478H114.844V105H112.072V95.6478H108.538Z" fill="white"/>
<path d="M122.946 105V93.3637H127.753C128.625 93.3637 129.376 93.5209 130.009 93.8353C130.645 94.1459 131.136 94.5928 131.481 95.1762C131.825 95.7557 131.998 96.4432 131.998 97.2387C131.998 98.0455 131.821 98.7311 131.469 99.2955C131.117 99.8561 130.617 100.284 129.969 100.58C129.321 100.871 128.554 101.017 127.668 101.017H124.628V98.8012H127.145C127.57 98.8012 127.924 98.7463 128.208 98.6364C128.496 98.5228 128.714 98.3523 128.861 98.125C129.009 97.894 129.083 97.5985 129.083 97.2387C129.083 96.8788 129.009 96.5815 128.861 96.3466C128.714 96.108 128.496 95.93 128.208 95.8125C127.92 95.6913 127.566 95.6307 127.145 95.6307H125.759V105H122.946ZM129.498 99.6819L132.395 105H129.327L126.486 99.6819H129.498Z" fill="white"/>
<path d="M147.723 99.1819C147.723 100.462 147.477 101.547 146.985 102.438C146.492 103.328 145.825 104.004 144.985 104.466C144.147 104.928 143.208 105.159 142.166 105.159C141.121 105.159 140.18 104.926 139.343 104.46C138.505 103.994 137.841 103.318 137.348 102.432C136.86 101.542 136.615 100.458 136.615 99.1819C136.615 97.9016 136.86 96.8163 137.348 95.9262C137.841 95.036 138.505 94.3599 139.343 93.8978C140.18 93.4357 141.121 93.2046 142.166 93.2046C143.208 93.2046 144.147 93.4357 144.985 93.8978C145.825 94.3599 146.492 95.036 146.985 95.9262C147.477 96.8163 147.723 97.9016 147.723 99.1819ZM144.848 99.1819C144.848 98.4243 144.74 97.7841 144.524 97.2614C144.312 96.7387 144.005 96.3428 143.604 96.0739C143.206 95.805 142.727 95.6705 142.166 95.6705C141.61 95.6705 141.13 95.805 140.729 96.0739C140.327 96.3428 140.019 96.7387 139.803 97.2614C139.591 97.7841 139.485 98.4243 139.485 99.1819C139.485 99.9394 139.591 100.58 139.803 101.102C140.019 101.625 140.327 102.021 140.729 102.29C141.13 102.559 141.61 102.693 142.166 102.693C142.727 102.693 143.206 102.559 143.604 102.29C144.005 102.021 144.312 101.625 144.524 101.102C144.74 100.58 144.848 99.9394 144.848 99.1819Z" fill="white"/>
<path fill-rule="evenodd" clip-rule="evenodd" d="M126 78.5H26V77.5H126V78.5Z" fill="white"/>
</svg>
